STARTFONT 2.1
COMMENT
COMMENT Converted from OpenType font "Monaco.ttf" by "otf2bdf 3.0".
COMMENT
FONT -FreeType-Monaco-Medium-R-Normal--24-240-72-72-P-111-ISO10646-1
SIZE 24 72 72
FONTBOUNDINGBOX 14 29 0 -6
STARTPROPERTIES 19
FOUNDRY "FreeType"
FAMILY_NAME "Monaco"
WEIGHT_NAME "Medium"
SLANT "R"
SETWIDTH_NAME "Normal"
ADD_STYLE_NAME ""
PIXEL_SIZE 24
POINT_SIZE 240
RESOLUTION_X 72
RESOLUTION_Y 72
SPACING "P"
AVERAGE_WIDTH 111
CHARSET_REGISTRY "ISO10646"
CHARSET_ENCODING "1"
FONT_ASCENT 19
FONT_DESCENT 5
COPYRIGHT "© 1990-91 Apple Computer Inc. © 1990-91 Type Solutions Inc. © 1990-91 The Font Bureau Inc."
_OTF_FONTFILE "Monaco.ttf"
_OTF_PSNAME "Monaco"
ENDPROPERTIES
CHARS 228
STARTCHAR 0000
ENCODING 0
SWIDTH 0 0
DWIDTH 0 0
BBX 0 0 0 0
BITMAP
ENDCHAR
STARTCHAR 0008
ENCODING 8
SWIDTH 0 0
DWIDTH 0 0
BBX 0 0 0 0
BITMAP
ENDCHAR
STARTCHAR 0009
ENCODING 9
SWIDTH 583 0
DWIDTH 14 0
BBX 0 0 0 0
BITMAP
ENDCHAR
STARTCHAR 000D
ENCODING 13
SWIDTH 583 0
DWIDTH 14 0
BBX 0 0 0 0
BITMAP
ENDCHAR
STARTCHAR 001D
ENCODING 29
SWIDTH 0 0
DWIDTH 0 0
BBX 0 0 0 0
BITMAP
ENDCHAR
STARTCHAR 0020
ENCODING 32
SWIDTH 583 0
DWIDTH 14 0
BBX 0 0 0 0
BITMAP
ENDCHAR
STARTCHAR 0021
ENCODING 33
SWIDTH 583 0
DWIDTH 14 0
BBX 3 18 6 0
BITMAP
E0
E0
C0
C0
C0
C0
C0
C0
C0
C0
C0
C0
C0
00
00
C0
E0
C0
ENDCHAR
STARTCHAR 0022
ENCODING 34
SWIDTH 583 0
DWIDTH 14 0
BBX 8 6 3 12
BITMAP
E7
E3
63
63
63
43
ENDCHAR
STARTCHAR 0023
ENCODING 35
SWIDTH 583 0
DWIDTH 14 0
BBX 13 18 1 0
BITMAP
0630
0630
0420
0C60
0C60
FFF8
FFF8
18C0
18C0
1080
3180
FFF8
FFF8
2100
6300
6300
6200
C600
ENDCHAR
STARTCHAR 0024
ENCODING 36
SWIDTH 583 0
DWIDTH 14 0
BBX 11 22 2 -2
BITMAP
0400
0400
1FC0
7FC0
E400
C400
C400
E400
7400
7C00
1E00
0780
07C0
04E0
04E0
0460
04E0
C5C0
FF80
7F00
0400
0400
ENDCHAR
STARTCHAR 0025
ENCODING 37
SWIDTH 583 0
DWIDTH 14 0
BBX 14 20 0 -1
BITMAP
000C
3C0C
7E18
C630
C630
C660
C640
C6C0
7D80
11A0
03F8
06CC
078C
0D84
198C
198C
31CC
60F8
6070
C000
ENDCHAR
STARTCHAR 0026
ENCODING 38
SWIDTH 583 0
DWIDTH 14 0
BBX 14 18 0 0
BITMAP
0F00
3F80
3180
7180
7180
3180
3F00
1E00
1C00
3618
6718
C3B8
C1F0
C0F0
E070
70F8
7FD8
1F1C
ENDCHAR
STARTCHAR 0027
ENCODING 39
SWIDTH 583 0
DWIDTH 14 0
BBX 4 6 5 12
BITMAP
F0
F0
70
70
60
60
ENDCHAR
STARTCHAR 0028
ENCODING 40
SWIDTH 583 0
DWIDTH 14 0
BBX 11 23 2 -4
BITMAP
01E0
07E0
0E00
1C00
3800
3000
7000
6000
6000
E000
E000
E000
E000
E000
6000
6000
7000
3000
3800
1C00
0E00
07C0
01E0
ENDCHAR
STARTCHAR 0029
ENCODING 41
SWIDTH 583 0
DWIDTH 14 0
BBX 10 23 2 -4
BITMAP
E000
F800
1C00
0E00
0700
0380
0180
0180
01C0
00C0
00C0
00C0
00C0
00C0
01C0
01C0
0180
0380
0700
0E00
1C00
F800
F000
ENDCHAR
STARTCHAR 002A
ENCODING 42
SWIDTH 583 0
DWIDTH 14 0
BBX 10 10 2 8
BITMAP
0C00
4C40
EDC0
7F80
1E00
3F00
FFC0
CCC0
0C00
0C00
ENDCHAR
STARTCHAR 002B
ENCODING 43
SWIDTH 583 0
DWIDTH 14 0
BBX 13 13 1 0
BITMAP
0600
0600
0600
0600
0600
0600
FFF8
FFF8
0600
0600
0600
0600
0600
ENDCHAR
STARTCHAR 002C
ENCODING 44
SWIDTH 583 0
DWIDTH 14 0
BBX 4 8 5 -5
BITMAP
F0
F0
F0
30
30
30
E0
C0
ENDCHAR
STARTCHAR 002D
ENCODING 45
SWIDTH 583 0
DWIDTH 14 0
BBX 9 2 3 6
BITMAP
FF80
FF80
ENDCHAR
STARTCHAR 002E
ENCODING 46
SWIDTH 583 0
DWIDTH 14 0
BBX 4 4 5 0
BITMAP
60
F0
F0
60
ENDCHAR
STARTCHAR 002F
ENCODING 47
SWIDTH 583 0
DWIDTH 14 0
BBX 14 18 0 0
BITMAP
000C
0018
0030
0030
0060
00E0
00C0
0180
0380
0300
0600
0600
0C00
1800
1800
3000
7000
E000
ENDCHAR
STARTCHAR 0030
ENCODING 48
SWIDTH 583 0
DWIDTH 14 0
BBX 13 18 1 0
BITMAP
0F80
3FC0
70E0
6070
E0F0
E0F0
C1B0
C330
C738
C638
CC30
DC30
F830
F070
7070
70E0
3FC0
0F80
ENDCHAR
STARTCHAR 0031
ENCODING 49
SWIDTH 583 0
DWIDTH 14 0
BBX 11 18 2 0
BITMAP
0E00
1E00
7600
E600
8600
0600
0600
0600
0600
0600
0600
0600
0600
0600
0600
0600
FFE0
FFE0
ENDCHAR
STARTCHAR 0032
ENCODING 50
SWIDTH 583 0
DWIDTH 14 0
BBX 11 18 2 0
BITMAP
3F00
FFC0
C1C0
00C0
00C0
00C0
01C0
0380
0700
0E00
1C00
3800
7000
6000
C000
C000
FFE0
FFE0
ENDCHAR
STARTCHAR 0033
ENCODING 51
SWIDTH 583 0
DWIDTH 14 0
BBX 11 18 2 0
BITMAP
7E00
FF80
C3C0
01C0
00C0
01C0
0380
3F00
3F80
03C0
00C0
00E0
0060
00E0
00C0
C1C0
FF80
7E00
ENDCHAR
STARTCHAR 0034
ENCODING 52
SWIDTH 583 0
DWIDTH 14 0
BBX 13 18 1 0
BITMAP
0180
0380
0380
0780
0D80
1D80
1980
3180
7180
6180
C180
FFF8
FFF8
0180
0180
0180
0180
0180
ENDCHAR
STARTCHAR 0035
ENCODING 53
SWIDTH 583 0
DWIDTH 14 0
BBX 11 18 2 0
BITMAP
FFC0
FFC0
C000
C000
C000
C000
FE00
FF80
03C0
01C0
00E0
00E0
00E0
00E0
00C0
C3C0
FF80
7E00
ENDCHAR
STARTCHAR 0036
ENCODING 54
SWIDTH 583 0
DWIDTH 14 0
BBX 13 18 1 0
BITMAP
07E0
1FE0
3820
7000
7000
6000
E000
E7C0
CFE0
D870
F030
E038
6038
6030
7030
3860
1FE0
0F80
ENDCHAR
STARTCHAR 0037
ENCODING 55
SWIDTH 583 0
DWIDTH 14 0
BBX 11 18 2 0
BITMAP
FFE0
FFE0
0060
0060
00C0
0180
0380
0300
0600
0E00
0C00
1800
3800
3000
3000
3000
3000
3000
ENDCHAR
STARTCHAR 0038
ENCODING 56
SWIDTH 583 0
DWIDTH 14 0
BBX 11 18 2 0
BITMAP
1F00
3F80
71C0
60C0
60C0
60C0
7180
3F00
1E00
3F80
73C0
E0C0
C0E0
C060
C0E0
E1C0
7FC0
3F00
ENDCHAR
STARTCHAR 0039
ENCODING 57
SWIDTH 583 0
DWIDTH 14 0
BBX 12 18 1 0
BITMAP
1F00
3FC0
71E0
E060
C070
C070
C070
C0F0
E1F0
7FB0
1E30
0030
0070
0060
00E0
41C0
7F80
7E00
ENDCHAR
STARTCHAR 003A
ENCODING 58
SWIDTH 583 0
DWIDTH 14 0
BBX 4 13 5 0
BITMAP
60
F0
F0
60
00
00
00
00
00
60
F0
F0
60
ENDCHAR
STARTCHAR 003B
ENCODING 59
SWIDTH 583 0
DWIDTH 14 0
BBX 4 18 5 -5
BITMAP
60
F0
F0
60
00
00
00
00
00
00
F0
F0
F0
30
30
30
E0
C0
ENDCHAR
STARTCHAR 003C
ENCODING 60
SWIDTH 583 0
DWIDTH 14 0
BBX 13 13 1 0
BITMAP
0008
0038
00F0
03C0
0F00
3C00
F000
3C00
0F00
03C0
00F0
0038
0008
ENDCHAR
STARTCHAR 003D
ENCODING 61
SWIDTH 583 0
DWIDTH 14 0
BBX 13 6 1 3
BITMAP
FFF8
FFF8
0000
0000
FFF8
FFF8
ENDCHAR
STARTCHAR 003E
ENCODING 62
SWIDTH 583 0
DWIDTH 14 0
BBX 13 13 1 0
BITMAP
8000
C000
F000
3C00
0F00
03C0
00F0
01E8
0780
1E00
7800
E000
8000
ENDCHAR
STARTCHAR 003F
ENCODING 63
SWIDTH 583 0
DWIDTH 14 0
BBX 10 18 2 0
BITMAP
3F00
FFC0
C1C0
00C0
00C0
01C0
0380
0300
0600
0C00
1800
1800
1800
0000
0000
1800
3C00
1800
ENDCHAR
STARTCHAR 0040
ENCODING 64
SWIDTH 583 0
DWIDTH 14 0
BBX 14 18 0 0
BITMAP
07C0
1FF0
3838
67D8
6FCC
DCC4
D8C4
D8C4
98C4
99C4
DFFC
CE78
C000
6000
6020
3860
1FE0
0780
ENDCHAR
STARTCHAR 0041
ENCODING 65
SWIDTH 583 0
DWIDTH 14 0
BBX 14 18 0 0
BITMAP
0380
0380
0780
0780
07C0
0EC0
0CC0
0CE0
1C60
1860
1870
3830
3FF0
3FF8
7038
6018
601C
E01C
ENDCHAR
STARTCHAR 0042
ENCODING 66
SWIDTH 583 0
DWIDTH 14 0
BBX 11 18 2 0
BITMAP
FF00
FF80
C1C0
C0C0
C0C0
C0C0
C180
C380
FE00
FF80
C3C0
C0C0
C0E0
C0E0
C0E0
C1C0
FF80
FF00
ENDCHAR
STARTCHAR 0043
ENCODING 67
SWIDTH 583 0
DWIDTH 14 0
BBX 12 18 1 0
BITMAP
07E0
0FF0
3C30
3800
7000
7000
6000
E000
E000
E000
E000
6000
6000
7000
3800
3C30
0FF0
07E0
ENDCHAR
STARTCHAR 0044
ENCODING 68
SWIDTH 583 0
DWIDTH 14 0
BBX 11 18 2 0
BITMAP
FE00
FF80
C1C0
C0C0
C0E0
C060
C060
C060
C060
C060
C060
C060
C060
C0E0
C0C0
C1C0
FF80
FE00
ENDCHAR
STARTCHAR 0045
ENCODING 69
SWIDTH 583 0
DWIDTH 14 0
BBX 10 18 2 0
BITMAP
FFC0
FFC0
E000
E000
E000
E000
E000
E000
FF80
FF80
E000
E000
E000
E000
E000
E000
FFC0
FFC0
ENDCHAR
STARTCHAR 0046
ENCODING 70
SWIDTH 583 0
DWIDTH 14 0
BBX 10 18 3 0
BITMAP
FFC0
FFC0
C000
C000
C000
C000
C000
C000
FF80
FF80
C000
C000
C000
C000
C000
C000
C000
C000
ENDCHAR
STARTCHAR 0047
ENCODING 71
SWIDTH 583 0
DWIDTH 14 0
BBX 12 18 1 0
BITMAP
07E0
0FF0
3C30
3800
7000
7000
6000
E000
E000
E0F0
E0F0
6070
6070
7070
3870
3C70
1FF0
07E0
ENDCHAR
STARTCHAR 0048
ENCODING 72
SWIDTH 583 0
DWIDTH 14 0
BBX 12 18 1 0
BITMAP
E030
E030
E030
E030
E030
E030
E030
E030
FFF0
FFF0
E030
E030
E030
E030
E030
E030
E030
E030
ENDCHAR
STARTCHAR 0049
ENCODING 73
SWIDTH 583 0
DWIDTH 14 0
BBX 10 18 2 0
BITMAP
FFC0
FFC0
0C00
0C00
0C00
0C00
0C00
0C00
0C00
0C00
0C00
0C00
0C00
0C00
0C00
0C00
FFC0
FFC0
ENDCHAR
STARTCHAR 004A
ENCODING 74
SWIDTH 583 0
DWIDTH 14 0
BBX 10 18 1 0
BITMAP
0FC0
0FC0
00C0
00C0
00C0
00C0
00C0
00C0
00C0
00C0
00C0
00C0
00C0
00C0
01C0
C3C0
FF80
3E00
ENDCHAR
STARTCHAR 004B
ENCODING 75
SWIDTH 583 0
DWIDTH 14 0
BBX 12 18 2 0
BITMAP
C060
C0C0
C1C0
C380
C700
C600
CE00
DC00
F800
DC00
CC00
CE00
C700
C380
C1C0
C1C0
C0E0
C070
ENDCHAR
STARTCHAR 004C
ENCODING 76
SWIDTH 583 0
DWIDTH 14 0
BBX 9 18 3 0
BITMAP
C000
C000
C000
C000
C000
C000
C000
C000
C000
C000
C000
C000
C000
C000
C000
C000
FF80
FF80
ENDCHAR
STARTCHAR 004D
ENCODING 77
SWIDTH 583 0
DWIDTH 14 0
BBX 13 18 1 0
BITMAP
C038
E038
E038
E078
F078
F0D8
F0D8
F8D8
D998
D998
DD98
CF18
CF18
C718
C018
C018
C018
C018
ENDCHAR
STARTCHAR 004E
ENCODING 78
SWIDTH 583 0
DWIDTH 14 0
BBX 12 18 1 0
BITMAP
E030
E030
F030
F030
F830
FC30
EC30
EE30
E630
E730
E330
E3B0
E1B0
E1F0
E0F0
E0F0
E070
E070
ENDCHAR
STARTCHAR 004F
ENCODING 79
SWIDTH 583 0
DWIDTH 14 0
BBX 13 18 1 0
BITMAP
0F80
3FC0
78E0
7070
E070
E030
C030
C030
C038
C038
C030
C030
E030
E070
7070
78E0
3FC0
0F80
ENDCHAR
STARTCHAR 0050
ENCODING 80
SWIDTH 583 0
DWIDTH 14 0
BBX 11 18 2 0
BITMAP
FF00
FFC0
C1E0
C0E0
C060
C060
C060
C0E0
C1C0
FF80
FE00
C000
C000
C000
C000
C000
C000
C000
ENDCHAR
STARTCHAR 0051
ENCODING 81
SWIDTH 583 0
DWIDTH 14 0
BBX 13 23 1 -5
BITMAP
0F80
3FC0
78E0
7060
E070
E030
C030
C030
C038
C038
C038
C030
C030
6030
6070
7060
39C0
0F80
0300
0180
01C0
00F8
0038
ENDCHAR
STARTCHAR 0052
ENCODING 82
SWIDTH 583 0
DWIDTH 14 0
BBX 12 18 2 0
BITMAP
FF00
FFC0
C1C0
C0C0
C0C0
C0C0
C1C0
C380
FF00
FE00
C700
C700
C380
C180
C1C0
C0E0
C0E0
C070
ENDCHAR
STARTCHAR 0053
ENCODING 83
SWIDTH 583 0
DWIDTH 14 0
BBX 11 18 2 0
BITMAP
1F80
7FC0
F040
E000
C000
E000
7000
7800
3E00
0F80
03C0
00E0
00E0
0060
00E0
C1C0
FF80
7F00
ENDCHAR
STARTCHAR 0054
ENCODING 84
SWIDTH 583 0
DWIDTH 14 0
BBX 13 18 1 0
BITMAP
FFF8
FFF8
0600
0600
0600
0600
0600
0600
0600
0600
0600
0600
0600
0600
0600
0600
0600
0600
ENDCHAR
STARTCHAR 0055
ENCODING 85
SWIDTH 583 0
DWIDTH 14 0
BBX 12 18 1 0
BITMAP
E030
E030
E030
E030
E030
E030
E030
E030
E030
E030
E030
E030
6030
6030
6060
70E0
3FC0
1F80
ENDCHAR
STARTCHAR 0056
ENCODING 86
SWIDTH 583 0
DWIDTH 14 0
BBX 14 18 0 0
BITMAP
E00C
601C
7018
7018
3038
3830
3830
1870
1C60
1C60
0CE0
0EC0
0EC0
06C0
07C0
0780
0380
0380
ENDCHAR
STARTCHAR 0057
ENCODING 87
SWIDTH 583 0
DWIDTH 14 0
BBX 14 18 0 0
BITMAP
E30C
E38C
638C
678C
678C
6788
6798
64D8
64D8
7CD8
3CD8
3CD8
3C78
3870
3870
3870
3870
3830
ENDCHAR
STARTCHAR 0058
ENCODING 88
SWIDTH 583 0
DWIDTH 14 0
BBX 13 18 1 0
BITMAP
E030
7060
70E0
38C0
19C0
1D80
0F80
0F00
0700
0F00
0F80
1D80
19C0
38C0
30E0
6060
E070
C038
ENDCHAR
STARTCHAR 0059
ENCODING 89
SWIDTH 583 0
DWIDTH 14 0
BBX 13 18 1 0
BITMAP
E038
E070
7060
30E0
38C0
19C0
1D80
0F80
0F00
0700
0600
0600
0600
0600
0600
0600
0600
0600
ENDCHAR
STARTCHAR 005A
ENCODING 90
SWIDTH 583 0
DWIDTH 14 0
BBX 12 18 1 0
BITMAP
7FF0
7FF0
0060
00E0
00C0
01C0
0380
0300
0700
0E00
0E00
1C00
1800
3800
7000
6000
FFF0
FFF0
ENDCHAR
STARTCHAR 005B
ENCODING 91
SWIDTH 583 0
DWIDTH 14 0
BBX 10 23 4 -4
BITMAP
FFC0
FFC0
C000
C000
C000
C000
C000
C000
C000
C000
C000
C000
C000
C000
C000
C000
C000
C000
C000
C000
C000
FFC0
FFC0
ENDCHAR
STARTCHAR 005C
ENCODING 92
SWIDTH 583 0
DWIDTH 14 0
BBX 14 18 0 0
BITMAP
E000
6000
3000
1800
1800
0C00
0600
0600
0300
0380
0180
00C0
00E0
0060
0030
0030
0018
000C
ENDCHAR
STARTCHAR 005D
ENCODING 93
SWIDTH 583 0
DWIDTH 14 0
BBX 9 23 1 -4
BITMAP
FF80
FF80
0180
0180
0180
0180
0180
0180
0180
0180
0180
0180
0180
0180
0180
0180
0180
0180
0180
0180
0180
FF80
FF80
ENDCHAR
STARTCHAR 005E
ENCODING 94
SWIDTH 583 0
DWIDTH 14 0
BBX 13 13 1 5
BITMAP
0400
0600
0600
0F00
0D00
1980
1880
30C0
3060
6060
6030
C030
C018
ENDCHAR
STARTCHAR 005F
ENCODING 95
SWIDTH 583 0
DWIDTH 14 0
BBX 13 2 1 -2
BITMAP
FFF8
FFF8
ENDCHAR
STARTCHAR 0060
ENCODING 96
SWIDTH 583 0
DWIDTH 14 0
BBX 6 3 4 15
BITMAP
E0
30
1C
ENDCHAR
STARTCHAR 0061
ENCODING 97
SWIDTH 583 0
DWIDTH 14 0
BBX 12 13 1 0
BITMAP
0FF0
1FF0
3870
7070
6070
E070
E070
E070
E070
E0F0
71F0
7F30
1C30
ENDCHAR
STARTCHAR 0062
ENCODING 98
SWIDTH 583 0
DWIDTH 14 0
BBX 11 18 2 0
BITMAP
C000
C000
C000
C000
C000
C780
DFC0
F8E0
E0E0
E060
C060
C060
C0E0
C0E0
C1C0
C380
FF80
FE00
ENDCHAR
STARTCHAR 0063
ENCODING 99
SWIDTH 583 0
DWIDTH 14 0
BBX 11 13 2 0
BITMAP
0FC0
3FE0
7860
6000
E000
C000
C000
C000
E000
6000
7820
3FE0
0FC0
ENDCHAR
STARTCHAR 0064
ENCODING 100
SWIDTH 583 0
DWIDTH 14 0
BBX 12 18 1 0
BITMAP
0030
0030
0030
0030
0030
0FF0
1FF0
3830
7030
6030
6030
E030
E030
E070
60F0
71B0
7F30
1E30
ENDCHAR
STARTCHAR 0065
ENCODING 101
SWIDTH 583 0
DWIDTH 14 0
BBX 11 13 2 0
BITMAP
1F00
3F80
71C0
E0C0
C060
FFE0
FFE0
C000
C000
E000
7060
3FE0
1F80
ENDCHAR
STARTCHAR 0066
ENCODING 102
SWIDTH 583 0
DWIDTH 14 0
BBX 12 19 2 0
BITMAP
03F0
0FF0
0E10
1C00
1800
1800
1800
FFC0
FFC0
1800
1800
1800
1800
1800
1800
1800
1800
1800
1800
ENDCHAR
STARTCHAR 0067
ENCODING 103
SWIDTH 583 0
DWIDTH 14 0
BBX 12 18 1 -5
BITMAP
0FF0
1FF0
3830
7030
6030
6030
E030
E030
E070
60F0
71B0
7F30
1E70
0070
0060
C0E0
FFC0
3F00
ENDCHAR
STARTCHAR 0068
ENCODING 104
SWIDTH 583 0
DWIDTH 14 0
BBX 11 18 2 0
BITMAP
C000
C000
C000
C000
C000
C780
DFC0
F8C0
F0E0
E060
C060
C060
C060
C060
C060
C060
C060
C060
ENDCHAR
STARTCHAR 0069
ENCODING 105
SWIDTH 583 0
DWIDTH 14 0
BBX 9 19 2 0
BITMAP
1C00
1C00
0800
0000
0000
0000
FC00
FC00
1C00
1C00
1C00
1C00
1C00
1C00
1C00
1C00
1C00
1F80
1F80
ENDCHAR
STARTCHAR 006A
ENCODING 106
SWIDTH 583 0
DWIDTH 14 0
BBX 9 24 2 -5
BITMAP
0380
0380
0100
0000
0000
0000
7F80
7F80
0180
0180
0180
0180
0180
0180
0180
0180
0180
0180
0180
0380
0300
8700
FE00
FC00
ENDCHAR
STARTCHAR 006B
ENCODING 107
SWIDTH 583 0
DWIDTH 14 0
BBX 12 18 2 0
BITMAP
E000
E000
E000
E000
E000
E0F0
E1C0
E380
E700
EE00
FC00
FC00
EE00
E700
E380
E1C0
E0E0
E0F0
ENDCHAR
STARTCHAR 006C
ENCODING 108
SWIDTH 583 0
DWIDTH 14 0
BBX 11 18 1 0
BITMAP
FE00
FE00
0E00
0E00
0E00
0E00
0E00
0E00
0E00
0E00
0E00
0E00
0E00
0E00
0E00
0E00
0FE0
0FE0
ENDCHAR
STARTCHAR 006D
ENCODING 109
SWIDTH 583 0
DWIDTH 14 0
BBX 13 13 1 0
BITMAP
CC70
DEF0
E798
E718
C718
C618
C618
C618
C618
C618
C618
C618
C618
ENDCHAR
STARTCHAR 006E
ENCODING 110
SWIDTH 583 0
DWIDTH 14 0
BBX 11 13 2 0
BITMAP
C780
DFC0
F8C0
F0E0
E060
C060
C060
C060
C060
C060
C060
C060
C060
ENDCHAR
STARTCHAR 006F
ENCODING 111
SWIDTH 583 0
DWIDTH 14 0
BBX 12 13 1 0
BITMAP
0F80
3FC0
70E0
6070
E030
C030
C030
C030
E030
6070
70E0
3FC0
0F80
ENDCHAR
STARTCHAR 0070
ENCODING 112
SWIDTH 583 0
DWIDTH 14 0
BBX 11 18 2 -5
BITMAP
C780
DFC0
F8E0
E0E0
E060
C060
C060
C0E0
C0E0
C1C0
C380
FF80
FE00
C000
C000
C000
C000
C000
ENDCHAR
STARTCHAR 0071
ENCODING 113
SWIDTH 583 0
DWIDTH 14 0
BBX 12 18 1 -5
BITMAP
0FF0
1FF0
3830
7030
6030
6030
E030
E030
E070
60F0
71B0
7F30
1E30
0030
0030
0030
0030
0030
ENDCHAR
STARTCHAR 0072
ENCODING 114
SWIDTH 583 0
DWIDTH 14 0
BBX 10 13 3 0
BITMAP
C7C0
CFC0
D8C0
F0C0
E0C0
C000
C000
C000
C000
C000
C000
C000
C000
ENDCHAR
STARTCHAR 0073
ENCODING 115
SWIDTH 583 0
DWIDTH 14 0
BBX 11 13 2 0
BITMAP
3F80
7FC0
E040
E000
6000
7C00
1F00
03C0
00C0
80E0
C0C0
FFC0
3F00
ENDCHAR
STARTCHAR 0074
ENCODING 116
SWIDTH 583 0
DWIDTH 14 0
BBX 12 17 1 0
BITMAP
1C00
1C00
1C00
1C00
1C00
FFE0
FFE0
1C00
1C00
1C00
1C00
1C00
1C00
1C00
0E10
0FF0
03E0
ENDCHAR
STARTCHAR 0075
ENCODING 117
SWIDTH 583 0
DWIDTH 14 0
BBX 11 13 2 0
BITMAP
C0E0
C0E0
C0E0
C0E0
C0E0
C0E0
C0E0
C0E0
C0E0
C1E0
E7E0
FEE0
38E0
ENDCHAR
STARTCHAR 0076
ENCODING 118
SWIDTH 583 0
DWIDTH 14 0
BBX 14 13 0 0
BITMAP
E00C
6018
7018
3038
3830
1870
1C60
0CE0
0CC0
06C0
0780
0780
0380
ENDCHAR
STARTCHAR 0077
ENCODING 119
SWIDTH 583 0
DWIDTH 14 0
BBX 14 13 0 0
BITMAP
C30C
C38C
638C
678C
67C8
64C8
64D8
6CD8
3C78
3878
3870
3830
3830
ENDCHAR
STARTCHAR 0078
ENCODING 120
SWIDTH 583 0
DWIDTH 14 0
BBX 13 13 1 0
BITMAP
E070
70E0
38C0
1D80
1F80
0F00
0700
0F80
1D80
39C0
30E0
6070
E038
ENDCHAR
STARTCHAR 0079
ENCODING 121
SWIDTH 583 0
DWIDTH 14 0
BBX 14 18 0 -5
BITMAP
600C
7018
3018
3838
1830
1C30
0C60
0E60
06C0
07C0
03C0
0380
0380
0300
0700
0E00
FC00
F800
ENDCHAR
STARTCHAR 007A
ENCODING 122
SWIDTH 583 0
DWIDTH 14 0
BBX 11 13 2 0
BITMAP
FFC0
FFC0
01C0
0380
0700
0E00
0C00
1C00
3800
7000
E000
FFE0
FFE0
ENDCHAR
STARTCHAR 007B
ENCODING 123
SWIDTH 583 0
DWIDTH 14 0
BBX 11 23 2 -4
BITMAP
03E0
07E0
0E00
0C00
0C00
0E00
0600
0600
0600
0600
0C00
F800
F800
0C00
0600
0600
0600
0E00
0C00
0C00
0E00
0FE0
03E0
ENDCHAR
STARTCHAR 007C
ENCODING 124
SWIDTH 583 0
DWIDTH 14 0
BBX 2 18 6 0
BITMAP
C0
C0
C0
C0
C0
C0
C0
C0
C0
C0
C0
C0
C0
C0
C0
C0
C0
C0
ENDCHAR
STARTCHAR 007D
ENCODING 125
SWIDTH 583 0
DWIDTH 14 0
BBX 11 23 1 -4
BITMAP
FC00
FE00
0600
0600
0600
0600
0600
0E00
0E00
0600
0700
03E0
03E0
0700
0E00
0E00
0600
0600
0600
0600
0600
FE00
FC00
ENDCHAR
STARTCHAR 007E
ENCODING 126
SWIDTH 583 0
DWIDTH 14 0
BBX 13 5 1 4
BITMAP
3000
7C18
CF18
83F0
81E0
ENDCHAR
STARTCHAR 00A0
ENCODING 160
SWIDTH 583 0
DWIDTH 14 0
BBX 0 0 0 0
BITMAP
ENDCHAR
STARTCHAR 00A1
ENCODING 161
SWIDTH 583 0
DWIDTH 14 0
BBX 3 18 6 -5
BITMAP
C0
E0
C0
00
00
C0
C0
C0
C0
C0
C0
C0
E0
E0
E0
E0
E0
E0
ENDCHAR
STARTCHAR 00A2
ENCODING 162
SWIDTH 583 0
DWIDTH 14 0
BBX 11 22 1 -2
BITMAP
0300
0300
0300
0300
07C0
1FE0
3B20
7300
6300
6300
E300
E300
6300
6300
7300
3B20
1FE0
07C0
0300
0300
0300
0300
ENDCHAR
STARTCHAR 00A3
ENCODING 163
SWIDTH 583 0
DWIDTH 14 0
BBX 11 18 2 0
BITMAP
07C0
1FC0
1C40
3800
3800
3000
3000
FF00
FF00
3000
3000
3000
3000
3000
3000
6000
FFE0
FFE0
ENDCHAR
STARTCHAR 00A4
ENCODING 164
SWIDTH 583 0
DWIDTH 14 0
BBX 13 14 1 2
BITMAP
C010
E238
7FE0
39C0
7060
6020
6030
6030
6060
7060
3FC0
7FE0
E030
4018
ENDCHAR
STARTCHAR 00A5
ENCODING 165
SWIDTH 583 0
DWIDTH 14 0
BBX 13 18 1 0
BITMAP
C038
6030
7060
30E0
38C0
1980
0F80
0F00
0700
7FE0
7FE0
0600
0600
7FE0
7FE0
0600
0600
0600
ENDCHAR
STARTCHAR 00A7
ENCODING 167
SWIDTH 583 0
DWIDTH 14 0
BBX 11 22 2 -4
BITMAP
1F80
7FC0
60C0
E000
E000
F000
7800
6E00
C780
C1C0
C0E0
E060
7860
3CC0
0FC0
03C0
00E0
00E0
00E0
C1C0
FF80
7F00
ENDCHAR
STARTCHAR 00A8
ENCODING 168
SWIDTH 583 0
DWIDTH 14 0
BBX 8 3 3 15
BITMAP
63
E7
63
ENDCHAR
STARTCHAR 00A9
ENCODING 169
SWIDTH 583 0
DWIDTH 14 0
BBX 14 18 0 0
BITMAP
07C0
1FE0
3870
73D8
6FCC
CC0C
D804
D804
D804
9804
D804
D804
CC4C
6FCC
73D8
3870
1FE0
07C0
ENDCHAR
STARTCHAR 00AA
ENCODING 170
SWIDTH 583 0
DWIDTH 14 0
BBX 10 8 2 10
BITMAP
1F80
3F80
7080
6080
C080
6380
7EC0
3CC0
ENDCHAR
STARTCHAR 00AB
ENCODING 171
SWIDTH 583 0
DWIDTH 14 0
BBX 11 11 2 1
BITMAP
1860
1CE0
31C0
7380
E700
C700
E700
7380
31C0
18E0
0C60
ENDCHAR
STARTCHAR 00AC
ENCODING 172
SWIDTH 583 0
DWIDTH 14 0
BBX 13 5 1 2
BITMAP
FFF8
FFF8
0018
0018
0018
ENDCHAR
STARTCHAR 00AE
ENCODING 174
SWIDTH 583 0
DWIDTH 14 0
BBX 14 18 0 0
BITMAP
07C0
1FE0
3870
7F98
6FCC
CCCC
CC44
CCC4
CF84
8F04
CD84
CCC4
CCCC
6C6C
7018
3870
1FE0
07C0
ENDCHAR
STARTCHAR 00AF
ENCODING 175
SWIDTH 583 0
DWIDTH 14 0
BBX 6 2 4 15
BITMAP
FC
FC
ENDCHAR
STARTCHAR 00B0
ENCODING 176
SWIDTH 583 0
DWIDTH 14 0
BBX 6 7 4 11
BITMAP
38
7C
C4
84
C4
7C
38
ENDCHAR
STARTCHAR 00B1
ENCODING 177
SWIDTH 583 0
DWIDTH 14 0
BBX 13 16 1 0
BITMAP
0600
0600
0600
0600
0600
FFF8
FFF8
0600
0600
0600
0600
0600
0000
0000
FFF8
FFF8
ENDCHAR
STARTCHAR 00B4
ENCODING 180
SWIDTH 583 0
DWIDTH 14 0
BBX 6 3 4 15
BITMAP
1C
70
C0
ENDCHAR
STARTCHAR 00B5
ENCODING 181
SWIDTH 583 0
DWIDTH 14 0
BBX 12 17 1 -4
BITMAP
E070
E070
E070
E070
E070
E070
E070
E070
E070
E0F0
F1F0
FF70
FE70
E000
E000
E000
E000
ENDCHAR
STARTCHAR 00B6
ENCODING 182
SWIDTH 583 0
DWIDTH 14 0
BBX 13 22 1 -4
BITMAP
1FF8
7FF8
7E60
FE60
FE60
FE60
FE60
7E60
3E60
1E60
0660
0660
0660
0660
0660
0660
0660
0660
0660
0660
0660
0660
ENDCHAR
STARTCHAR 00B8
ENCODING 184
SWIDTH 583 0
DWIDTH 14 0
BBX 4 5 5 -5
BITMAP
60
40
B0
10
F0
ENDCHAR
STARTCHAR 00BA
ENCODING 186
SWIDTH 583 0
DWIDTH 14 0
BBX 10 8 2 10
BITMAP
1F00
7F80
E0C0
C0C0
C0C0
E0C0
7F80
3F00
ENDCHAR
STARTCHAR 00BB
ENCODING 187
SWIDTH 583 0
DWIDTH 14 0
BBX 12 11 1 1
BITMAP
4300
E380
31C0
38E0
1C70
0C70
1C60
38E0
71C0
6380
C300
ENDCHAR
STARTCHAR 00BF
ENCODING 191
SWIDTH 583 0
DWIDTH 14 0
BBX 10 19 2 -6
BITMAP
0700
0700
0700
0000
0000
0300
0700
0600
0600
0C00
1800
3000
7000
E000
C000
E000
E0C0
7FC0
3F00
ENDCHAR
STARTCHAR 00C0
ENCODING 192
SWIDTH 583 0
DWIDTH 14 0
BBX 14 23 0 0
BITMAP
0E00
0380
00C0
0000
0000
0380
0380
0780
0780
07C0
0EC0
0CC0
0CE0
1C60
1860
1870
3830
3FF0
3FF8
7038
6018
601C
E01C
ENDCHAR
STARTCHAR 00C1
ENCODING 193
SWIDTH 583 0
DWIDTH 14 0
BBX 14 23 0 0
BITMAP
01C0
0300
0600
0800
0000
0380
0380
0780
0780
07C0
0EC0
0CC0
0CE0
1C60
1860
1870
3830
3FF0
3FF8
7038
6018
601C
E01C
ENDCHAR
STARTCHAR 00C2
ENCODING 194
SWIDTH 583 0
DWIDTH 14 0
BBX 14 23 0 0
BITMAP
0380
0680
0C40
0020
0000
0380
0380
0780
0780
07C0
0EC0
0CC0
0CE0
1C60
1860
1870
3830
3FF0
3FF8
7038
6018
601C
E01C
ENDCHAR
STARTCHAR 00C3
ENCODING 195
SWIDTH 583 0
DWIDTH 14 0
BBX 14 23 0 0
BITMAP
0E20
0FE0
18C0
0000
0000
0380
0380
0780
0780
07C0
0EC0
0CC0
0CE0
1C60
1860
1870
3830
3FF0
3FF8
7038
6018
601C
E01C
ENDCHAR
STARTCHAR 00C4
ENCODING 196
SWIDTH 583 0
DWIDTH 14 0
BBX 14 23 0 0
BITMAP
0C60
1CE0
0860
0000
0000
0380
0380
0780
0780
07C0
0EC0
0CC0
0CE0
1C60
1860
1870
3830
3FF0
3FF8
7038
6018
601C
E01C
ENDCHAR
STARTCHAR 00C5
ENCODING 197
SWIDTH 583 0
DWIDTH 14 0
BBX 14 22 0 0
BITMAP
0380
0480
0480
0480
0380
0780
0780
07C0
07C0
0EC0
0CC0
0CE0
1C60
1860
1870
3830
3FF0
3FF8
7038
6018
601C
E01C
ENDCHAR
STARTCHAR 00C6
ENCODING 198
SWIDTH 583 0
DWIDTH 14 0
BBX 14 18 0 0
BITMAP
01FC
01FC
03C0
03C0
03C0
07C0
07C0
0DC0
0DFC
0DFC
19C0
19C0
3FC0
3FC0
71C0
61C0
61FC
C1FC
ENDCHAR
STARTCHAR 00C7
ENCODING 199
SWIDTH 583 0
DWIDTH 14 0
BBX 12 23 1 -5
BITMAP
07E0
0FF0
1C30
3800
7000
7000
6000
E000
E000
E000
E000
E000
6000
7000
7000
3800
1E30
0FF0
0300
0200
0380
0080
0780
ENDCHAR
STARTCHAR 00C8
ENCODING 200
SWIDTH 583 0
DWIDTH 14 0
BBX 10 23 2 0
BITMAP
3C00
0E00
0300
0000
0000
FFC0
FFC0
E000
E000
E000
E000
E000
E000
FF80
FF80
E000
E000
E000
E000
E000
E000
FFC0
FFC0
ENDCHAR
STARTCHAR 00C9
ENCODING 201
SWIDTH 583 0
DWIDTH 14 0
BBX 10 23 2 0
BITMAP
0700
0C00
1800
2000
0000
FFC0
FFC0
E000
E000
E000
E000
E000
E000
FF80
FF80
E000
E000
E000
E000
E000
E000
FFC0
FFC0
ENDCHAR
STARTCHAR 00CA
ENCODING 202
SWIDTH 583 0
DWIDTH 14 0
BBX 10 23 2 0
BITMAP
0E00
1A00
3100
0080
0000
FFC0
FFC0
E000
E000
E000
E000
E000
E000
FF80
FF80
E000
E000
E000
E000
E000
E000
FFC0
FFC0
ENDCHAR
STARTCHAR 00CB
ENCODING 203
SWIDTH 583 0
DWIDTH 14 0
BBX 10 23 2 0
BITMAP
3180
7380
3180
0000
0000
FFC0
FFC0
E000
E000
E000
E000
E000
E000
FF80
FF80
E000
E000
E000
E000
E000
E000
FFC0
FFC0
ENDCHAR
STARTCHAR 00CC
ENCODING 204
SWIDTH 583 0
DWIDTH 14 0
BBX 10 23 2 0
BITMAP
3800
0E00
0300
0000
0000
FFC0
FFC0
0C00
0C00
0C00
0C00
0C00
0C00
0C00
0C00
0C00
0C00
0C00
0C00
0C00
0C00
FFC0
FFC0
ENDCHAR
STARTCHAR 00CD
ENCODING 205
SWIDTH 583 0
DWIDTH 14 0
BBX 10 23 2 0
BITMAP
0700
0C00
1800
2000
0000
FFC0
FFC0
0C00
0C00
0C00
0C00
0C00
0C00
0C00
0C00
0C00
0C00
0C00
0C00
0C00
0C00
FFC0
FFC0
ENDCHAR
STARTCHAR 00CE
ENCODING 206
SWIDTH 583 0
DWIDTH 14 0
BBX 10 23 2 0
BITMAP
0E00
1A00
3100
0080
0000
FFC0
FFC0
0C00
0C00
0C00
0C00
0C00
0C00
0C00
0C00
0C00
0C00
0C00
0C00
0C00
0C00
FFC0
FFC0
ENDCHAR
STARTCHAR 00CF
ENCODING 207
SWIDTH 583 0
DWIDTH 14 0
BBX 10 23 2 0
BITMAP
3180
7380
2180
0000
0000
FFC0
FFC0
0C00
0C00
0C00
0C00
0C00
0C00
0C00
0C00
0C00
0C00
0C00
0C00
0C00
0C00
FFC0
FFC0
ENDCHAR
STARTCHAR 00D1
ENCODING 209
SWIDTH 583 0
DWIDTH 14 0
BBX 12 23 1 0
BITMAP
1C40
1FC0
3180
0000
0000
E030
E030
F030
F030
F830
FC30
EC30
EE30
E630
E730
E330
E3B0
E1B0
E1F0
E0F0
E0F0
E070
E070
ENDCHAR
STARTCHAR 00D2
ENCODING 210
SWIDTH 583 0
DWIDTH 14 0
BBX 13 23 1 0
BITMAP
1C00
0700
0180
0000
0000
0F80
3FC0
78E0
7070
E070
E030
C030
C030
C038
C038
C030
C030
E030
E070
7070
78E0
3FC0
0F80
ENDCHAR
STARTCHAR 00D3
ENCODING 211
SWIDTH 583 0
DWIDTH 14 0
BBX 13 23 1 0
BITMAP
0380
0600
0C00
1000
0000
0F80
3FC0
78E0
7070
E070
E030
C030
C030
C038
C038
C030
C030
E030
E070
7070
78E0
3FC0
0F80
ENDCHAR
STARTCHAR 00D4
ENCODING 212
SWIDTH 583 0
DWIDTH 14 0
BBX 13 23 1 0
BITMAP
0700
0D00
1880
0040
0000
0F80
3FC0
78E0
7070
E070
E030
C030
C030
C038
C038
C030
C030
E030
E070
7070
78E0
3FC0
0F80
ENDCHAR
STARTCHAR 00D5
ENCODING 213
SWIDTH 583 0
DWIDTH 14 0
BBX 13 23 1 0
BITMAP
1CC0
1FC0
3180
0000
0000
0F80
3FC0
78E0
7070
E070
E030
C030
C030
C038
C038
C030
C030
E030
E070
7070
78E0
3FC0
0F80
ENDCHAR
STARTCHAR 00D6
ENCODING 214
SWIDTH 583 0
DWIDTH 14 0
BBX 13 23 1 0
BITMAP
18C0
39C0
10C0
0000
0000
0F80
3FC0
78E0
7070
E070
E030
C030
C030
C038
C038
C030
C030
E030
E070
7070
78E0
3FC0
0F80
ENDCHAR
STARTCHAR 00D8
ENCODING 216
SWIDTH 583 0
DWIDTH 14 0
BBX 13 20 1 -1
BITMAP
0018
0F30
3FE0
78E0
7060
E0F0
E0B0
C1B0
C330
C238
C638
CC38
CC30
D830
7070
7070
70E0
7FC0
CF80
C000
ENDCHAR
STARTCHAR 00D9
ENCODING 217
SWIDTH 583 0
DWIDTH 14 0
BBX 12 23 1 0
BITMAP
1C00
0700
0180
0000
0000
E030
E030
E030
E030
E030
E030
E030
E030
E030
E030
E030
E030
6030
6030
6060
70E0
3FC0
1F80
ENDCHAR
STARTCHAR 00DA
ENCODING 218
SWIDTH 583 0
DWIDTH 14 0
BBX 12 23 1 0
BITMAP
0380
0600
0C00
1000
0000
E030
E030
E030
E030
E030
E030
E030
E030
E030
E030
E030
E030
6030
6030
6060
70E0
3FC0
1F80
ENDCHAR
STARTCHAR 00DB
ENCODING 219
SWIDTH 583 0
DWIDTH 14 0
BBX 12 23 1 0
BITMAP
0700
0D00
1880
0040
0000
E030
E030
E030
E030
E030
E030
E030
E030
E030
E030
E030
E030
6030
6030
6060
70E0
3FC0
1F80
ENDCHAR
STARTCHAR 00DC
ENCODING 220
SWIDTH 583 0
DWIDTH 14 0
BBX 12 23 1 0
BITMAP
18C0
39C0
10C0
0000
0000
E030
E030
E030
E030
E030
E030
E030
E030
E030
E030
E030
E030
6030
6030
6060
70E0
3FC0
1F80
ENDCHAR
STARTCHAR 00DF
ENCODING 223
SWIDTH 583 0
DWIDTH 14 0
BBX 11 19 2 0
BITMAP
3F00
7F80
E380
C180
C380
C300
CE00
DC00
D800
DC00
CE00
C780
C3C0
C0E0
C060
C060
C060
CDC0
CF80
ENDCHAR
STARTCHAR 00E0
ENCODING 224
SWIDTH 583 0
DWIDTH 14 0
BBX 12 18 1 0
BITMAP
0E00
0300
0180
0040
0000
0FF0
1FF0
3870
7070
6070
E070
E070
E070
E070
E0F0
71F0
7F30
1C30
ENDCHAR
STARTCHAR 00E1
ENCODING 225
SWIDTH 583 0
DWIDTH 14 0
BBX 12 18 1 0
BITMAP
01E0
0380
0600
0000
0000
0FF0
1FF0
3870
7070
6070
E070
E070
E070
E070
E0F0
71F0
7F30
1C30
ENDCHAR
STARTCHAR 00E2
ENCODING 226
SWIDTH 583 0
DWIDTH 14 0
BBX 12 18 1 0
BITMAP
0300
0680
0C40
0020
0000
0FF0
1FF0
3870
7070
6070
E070
E070
E070
E070
E0F0
71F0
7F30
1C30
ENDCHAR
STARTCHAR 00E3
ENCODING 227
SWIDTH 583 0
DWIDTH 14 0
BBX 12 18 1 0
BITMAP
0E60
1FC0
11C0
0000
0000
0FF0
1FF0
3870
7070
6070
E070
E070
E070
E070
E0F0
71F0
7F30
1C30
ENDCHAR
STARTCHAR 00E4
ENCODING 228
SWIDTH 583 0
DWIDTH 14 0
BBX 12 18 1 0
BITMAP
18C0
1CE0
18C0
0000
0000
0FF0
1FF0
3870
7070
6070
E070
E070
E070
E070
E0F0
71F0
7F30
1C30
ENDCHAR
STARTCHAR 00E5
ENCODING 229
SWIDTH 583 0
DWIDTH 14 0
BBX 12 19 1 0
BITMAP
0700
0480
0480
0700
0000
0000
0FF0
1FF0
3870
7070
6070
E070
E070
E070
E070
E0F0
71F0
7F30
1C30
ENDCHAR
STARTCHAR 00E6
ENCODING 230
SWIDTH 583 0
DWIDTH 14 0
BBX 13 13 1 0
BITMAP
1CE0
3FF0
6330
E330
C338
C3F8
C3F8
C300
C700
C700
FF88
79F8
30F0
ENDCHAR
STARTCHAR 00E7
ENCODING 231
SWIDTH 583 0
DWIDTH 14 0
BBX 11 18 2 -5
BITMAP
0FC0
3FE0
7860
6000
E000
C000
C000
C000
E000
E000
7000
3FE0
1FE0
0200
0400
0700
0100
0F00
ENDCHAR
STARTCHAR 00E8
ENCODING 232
SWIDTH 583 0
DWIDTH 14 0
BBX 11 18 2 0
BITMAP
1C00
0600
0300
0080
0000
1F00
3F80
71C0
E0C0
C060
FFE0
FFE0
C000
C000
E000
7060
3FE0
1F80
ENDCHAR
STARTCHAR 00E9
ENCODING 233
SWIDTH 583 0
DWIDTH 14 0
BBX 11 18 2 0
BITMAP
0380
0600
0C00
1000
0000
1F00
3F80
71C0
E0C0
C060
FFE0
FFE0
C000
C000
E000
7060
3FE0
1F80
ENDCHAR
STARTCHAR 00EA
ENCODING 234
SWIDTH 583 0
DWIDTH 14 0
BBX 11 18 2 0
BITMAP
0E00
0B00
1180
2000
0000
1F00
3F80
71C0
E0C0
C060
FFE0
FFE0
C000
C000
E000
7060
3FE0
1F80
ENDCHAR
STARTCHAR 00EB
ENCODING 235
SWIDTH 583 0
DWIDTH 14 0
BBX 11 18 2 0
BITMAP
3180
39C0
3180
0000
0000
1F00
3F80
71C0
E0C0
C060
FFE0
FFE0
C000
C000
E000
7060
3FE0
1F80
ENDCHAR
STARTCHAR 00EC
ENCODING 236
SWIDTH 583 0
DWIDTH 14 0
BBX 9 18 2 0
BITMAP
3800
0C00
0600
0100
0000
FC00
FC00
1C00
1C00
1C00
1C00
1C00
1C00
1C00
1C00
1C00
1F80
1F80
ENDCHAR
STARTCHAR 00ED
ENCODING 237
SWIDTH 583 0
DWIDTH 14 0
BBX 9 18 2 0
BITMAP
0F00
1C00
3000
0000
0000
FC00
FC00
1C00
1C00
1C00
1C00
1C00
1C00
1C00
1C00
1C00
1F80
1F80
ENDCHAR
STARTCHAR 00EE
ENCODING 238
SWIDTH 583 0
DWIDTH 14 0
BBX 9 18 2 0
BITMAP
1C00
3600
6300
0000
0000
FC00
FC00
1C00
1C00
1C00
1C00
1C00
1C00
1C00
1C00
1C00
1F80
1F80
ENDCHAR
STARTCHAR 00EF
ENCODING 239
SWIDTH 583 0
DWIDTH 14 0
BBX 9 18 2 0
BITMAP
6300
6380
6300
0000
0000
FC00
FC00
1C00
1C00
1C00
1C00
1C00
1C00
1C00
1C00
1C00
1F80
1F80
ENDCHAR
STARTCHAR 00F1
ENCODING 241
SWIDTH 583 0
DWIDTH 14 0
BBX 11 18 2 0
BITMAP
3880
3F80
2300
0000
0000
C780
DFC0
D8C0
F0E0
E060
C060
C060
C060
C060
C060
C060
C060
C060
ENDCHAR
STARTCHAR 00F2
ENCODING 242
SWIDTH 583 0
DWIDTH 14 0
BBX 12 18 1 0
BITMAP
1C00
0700
0180
0000
0000
0F80
3FC0
70E0
6070
E030
C030
C030
C030
E030
6070
70E0
3FC0
0F80
ENDCHAR
STARTCHAR 00F3
ENCODING 243
SWIDTH 583 0
DWIDTH 14 0
BBX 12 18 1 0
BITMAP
0380
0600
0C00
1000
0000
0F80
3FC0
70E0
6070
E030
C030
C030
C030
E030
6070
70E0
3FC0
0F80
ENDCHAR
STARTCHAR 00F4
ENCODING 244
SWIDTH 583 0
DWIDTH 14 0
BBX 12 18 1 0
BITMAP
0600
0D00
1880
0040
0000
0F80
3FC0
70E0
6070
E030
C030
C030
C030
E030
6070
70E0
3FC0
0F80
ENDCHAR
STARTCHAR 00F5
ENCODING 245
SWIDTH 583 0
DWIDTH 14 0
BBX 12 18 1 0
BITMAP
1CC0
1FC0
3380
0000
0000
0F80
3FC0
70E0
6070
E030
C030
C030
C030
E030
6070
70E0
3FC0
0F80
ENDCHAR
STARTCHAR 00F6
ENCODING 246
SWIDTH 583 0
DWIDTH 14 0
BBX 12 18 1 0
BITMAP
18C0
39C0
18C0
0000
0000
0F80
3FC0
70E0
6070
E030
C030
C030
C030
E030
6070
70E0
3FC0
0F80
ENDCHAR
STARTCHAR 00F7
ENCODING 247
SWIDTH 583 0
DWIDTH 14 0
BBX 13 12 1 0
BITMAP
0700
0700
0600
0000
0000
FFF8
FFF8
0000
0000
0700
0700
0200
ENDCHAR
STARTCHAR 00F8
ENCODING 248
SWIDTH 583 0
DWIDTH 14 0
BBX 12 15 1 -1
BITMAP
0030
1FB0
3FE0
70E0
60F0
E1B0
C330
C630
CC30
EC30
7870
70E0
7FC0
6F80
C000
ENDCHAR
STARTCHAR 00F9
ENCODING 249
SWIDTH 583 0
DWIDTH 14 0
BBX 11 18 2 0
BITMAP
3800
0E00
0300
0000
0000
C0E0
C0E0
C0E0
C0E0
C0E0
C0E0
C0E0
C0E0
C0E0
C1E0
E7E0
FEE0
38E0
ENDCHAR
STARTCHAR 00FA
ENCODING 250
SWIDTH 583 0
DWIDTH 14 0
BBX 11 18 2 0
BITMAP
0380
0E00
1800
0000
0000
C0E0
C0E0
C0E0
C0E0
C0E0
C0E0
C0E0
C0E0
C0E0
C1E0
E7E0
FEE0
38E0
ENDCHAR
STARTCHAR 00FB
ENCODING 251
SWIDTH 583 0
DWIDTH 14 0
BBX 11 18 2 0
BITMAP
0C00
1A00
3100
0080
0000
C0E0
C0E0
C0E0
C0E0
C0E0
C0E0
C0E0
C0E0
C0E0
C1E0
E7E0
FEE0
38E0
ENDCHAR
STARTCHAR 00FC
ENCODING 252
SWIDTH 583 0
DWIDTH 14 0
BBX 11 18 2 0
BITMAP
3180
7380
3180
0000
0000
C0E0
C0E0
C0E0
C0E0
C0E0
C0E0
C0E0
C0E0
C0E0
C1E0
E7E0
FEE0
38E0
ENDCHAR
STARTCHAR 00FF
ENCODING 255
SWIDTH 583 0
DWIDTH 14 0
BBX 13 23 1 -5
BITMAP
18C0
1CE0
18C0
0000
0000
C018
6038
6030
3030
3060
1860
18C0
0CC0
0DC0
0780
0780
0300
0300
0600
0E00
1C00
F800
F000
ENDCHAR
ENDFONT
